<?xml version="1.0" standalone="no"?>
<!DOCTYPE svg PUBLIC "-//W3C//DTD SVG 20010904//EN"
 "http://www.w3.org/TR/2001/REC-SVG-20010904/DTD/svg10.dtd">
<svg version="1.0" xmlns="http://www.w3.org/2000/svg"
 width="984.000000pt" height="984.000000pt" viewBox="0 0 984.000000 984.000000"
 preserveAspectRatio="xMidYMid meet">

<g transform="translate(0.000000,984.000000) scale(0.100000,-0.100000)"
fill="#000000" stroke="none">
<path d="M3309 6857 c-39 -26 -69 -79 -69 -123 0 -17 14 -58 30 -92 26 -50 39
-64 76 -83 72 -34 142 -14 185 54 41 65 8 199 -60 244 -46 31 -116 31 -162 0z"/>
<path d="M6238 6829 c-109 -57 -119 -212 -17 -264 103 -54 209 11 216 132 5
70 -16 111 -70 136 -45 22 -83 21 -129 -4z"/>
<path d="M5010 5333 c-14 -2 -68 -18 -120 -36 -88 -30 -104 -32 -220 -31 -88
1 -138 7 -169 18 -41 15 -46 15 -60 1 -14 -14 -14 -18 -1 -42 21 -38 85 -80
149 -99 119 -36 355 6 436 77 36 32 60 81 51 104 -5 15 -17 16 -66 8z"/>
</g>
</svg>
